<?xml version="1.0" encoding="utf-8"?>
<!-- Generator: Adobe Illustrator 25.3.1, SVG Export Plug-In . SVG Version: 6.00 Build 0)  -->
<svg version="1.1" id="_x31_" xmlns="http://www.w3.org/2000/svg" xmlns:xlink="http://www.w3.org/1999/xlink" x="0px" y="0px"
	 viewBox="0 0 60.5 58.2" style="enable-background:new 0 0 60.5 58.2;" xml:space="preserve">
<style type="text/css">
	.st0{fill:url(#SVGID_1_);}
	.st1{fill:url(#SVGID_2_);}
	.st2{fill:url(#SVGID_3_);}
	.st3{fill:url(#SVGID_4_);}
	.st4{fill:url(#SVGID_5_);}
	.st5{fill:url(#SVGID_6_);}
	.st6{fill:url(#SVGID_7_);}
	.st7{fill:url(#SVGID_8_);}
	.st8{fill:url(#SVGID_9_);}
	.st9{fill:url(#SVGID_10_);}
	.st10{fill:url(#SVGID_11_);}
	.st11{fill:url(#SVGID_12_);}
	.st12{fill:url(#SVGID_13_);}
	.st13{fill:url(#SVGID_14_);}
	.st14{fill:url(#SVGID_15_);}
	.st15{fill:url(#SVGID_16_);}
	.st16{fill:url(#SVGID_17_);}
	.st17{fill:url(#SVGID_18_);}
	.st18{fill:url(#SVGID_19_);}
	.st19{fill:url(#SVGID_20_);}
	.st20{fill:url(#SVGID_21_);}
	.st21{fill:url(#SVGID_22_);}
	.st22{fill:url(#SVGID_23_);}
	.st23{display:none;}
</style>
<g>
	<g>
		<g>
			<g>
				<g id="_x37_9_x2C__3d_x2C__printing_x2C__computer">
					<g>
						<linearGradient id="SVGID_1_" gradientUnits="userSpaceOnUse" x1="0" y1="31.0527" x2="60.4931" y2="31.0527">
							<stop  offset="0.2593" style="stop-color:#FFDB6E"/>
							<stop  offset="1" style="stop-color:#FFBC5E"/>
						</linearGradient>
						<path class="st0" d="M55.4,3.9H5.1C2.3,3.9,0,6.3,0,9.1v33.8C0,45.7,2.3,48,5.1,48H25c-0.4,1.4-1.7,2.5-3.3,2.5h-0.2
							c-2.1,0-3.8,1.7-3.8,3.8s1.7,3.8,3.8,3.8H39c2.1,0,3.8-1.7,3.8-3.8s-1.7-3.8-3.8-3.8h-0.2c-1.6,0-2.9-1.1-3.3-2.5h19.9
							c2.8,0,5.1-2.3,5.1-5.1V9.1C60.5,6.3,58.2,3.9,55.4,3.9z M5.1,6.5h50.2c1.4,0,2.6,1.2,2.6,2.6v28.8H2.5V9.1
							C2.5,7.7,3.7,6.5,5.1,6.5z M38.8,53.1h0.3c0.7,0,1.3,0.6,1.3,1.3c0,0.7-0.6,1.3-1.3,1.3H21.6c-0.7,0-1.3-0.6-1.3-1.3
							c0-0.7,0.6-1.3,1.3-1.3h0.1c3,0,5.4-2.2,5.9-5h5.2C33.3,50.9,35.8,53.1,38.8,53.1z M55.4,45.6c-33.1,0-17.4,0-50.2,0
							c-1.4,0-2.6-1.2-2.6-2.6v-2.4H58V43C58,44.4,56.8,45.6,55.4,45.6z"/>
						<linearGradient id="SVGID_2_" gradientUnits="userSpaceOnUse" x1="52.9316" y1="43.0508" x2="55.5532" y2="43.0508">
							<stop  offset="0.2593" style="stop-color:#FFDB6E"/>
							<stop  offset="1" style="stop-color:#FFBC5E"/>
						</linearGradient>
						<path class="st1" d="M54.2,41.7c0.7,0,1.3,0.6,1.3,1.3s-0.6,1.3-1.3,1.3c-0.7,0-1.3-0.6-1.3-1.3S53.5,41.7,54.2,41.7z"/>
						<linearGradient id="SVGID_3_" gradientUnits="userSpaceOnUse" x1="49.1001" y1="43.0508" x2="51.7217" y2="43.0508">
							<stop  offset="0.2593" style="stop-color:#FFDB6E"/>
							<stop  offset="1" style="stop-color:#FFBC5E"/>
						</linearGradient>
						<path class="st2" d="M50.4,41.7c0.7,0,1.3,0.6,1.3,1.3s-0.6,1.3-1.3,1.3c-0.7,0-1.3-0.6-1.3-1.3S49.7,41.7,50.4,41.7z"/>
						<linearGradient id="SVGID_4_" gradientUnits="userSpaceOnUse" x1="13.8125" y1="50.6124" x2="16.4341" y2="50.6124">
							<stop  offset="0.2593" style="stop-color:#FFDB6E"/>
							<stop  offset="1" style="stop-color:#FFBC5E"/>
						</linearGradient>
						<path class="st3" d="M15.1,49.3c0.7,0,1.3,0.6,1.3,1.3c0,0.7-0.6,1.3-1.3,1.3c-0.7,0-1.3-0.6-1.3-1.3
							C13.8,49.9,14.4,49.3,15.1,49.3z"/>
						<linearGradient id="SVGID_5_" gradientUnits="userSpaceOnUse" x1="42.8496" y1="50.6124" x2="45.4707" y2="50.6124">
							<stop  offset="0.2593" style="stop-color:#FFDB6E"/>
							<stop  offset="1" style="stop-color:#FFBC5E"/>
						</linearGradient>
						<path class="st4" d="M44.2,49.3c0.7,0,1.3,0.6,1.3,1.3c0,0.7-0.6,1.3-1.3,1.3c-0.7,0-1.3-0.6-1.3-1.3
							C42.8,49.9,43.4,49.3,44.2,49.3z"/>
						<linearGradient id="SVGID_6_" gradientUnits="userSpaceOnUse" x1="45.3701" y1="43.0508" x2="47.9912" y2="43.0508">
							<stop  offset="0.2593" style="stop-color:#FFDB6E"/>
							<stop  offset="1" style="stop-color:#FFBC5E"/>
						</linearGradient>
						<path class="st5" d="M46.7,41.7c0.7,0,1.3,0.6,1.3,1.3s-0.6,1.3-1.3,1.3c-0.7,0-1.3-0.6-1.3-1.3S46,41.7,46.7,41.7z"/>
						<linearGradient id="SVGID_7_" gradientUnits="userSpaceOnUse" x1="13.8125" y1="27.9275" x2="16.4341" y2="27.9275">
							<stop  offset="0.2593" style="stop-color:#FFDB6E"/>
							<stop  offset="1" style="stop-color:#FFBC5E"/>
						</linearGradient>
						<path class="st6" d="M15.1,26.6c0.7,0,1.3,0.6,1.3,1.3c0,0.7-0.6,1.3-1.3,1.3c-0.7,0-1.3-0.6-1.3-1.3
							C13.8,27.2,14.4,26.6,15.1,26.6z"/>
						<linearGradient id="SVGID_8_" gradientUnits="userSpaceOnUse" x1="17.5429" y1="20.2649" x2="20.1645" y2="20.2649">
							<stop  offset="0.2593" style="stop-color:#FFDB6E"/>
							<stop  offset="1" style="stop-color:#FFBC5E"/>
						</linearGradient>
						<path class="st7" d="M18.9,19c0.7,0,1.3,0.6,1.3,1.3c0,0.7-0.6,1.3-1.3,1.3c-0.7,0-1.3-0.6-1.3-1.3C17.5,19.5,18.1,19,18.9,19
							z"/>
						<linearGradient id="SVGID_9_" gradientUnits="userSpaceOnUse" x1="21.4751" y1="12.7034" x2="23.895" y2="12.7034">
							<stop  offset="0.2593" style="stop-color:#FFDB6E"/>
							<stop  offset="1" style="stop-color:#FFBC5E"/>
						</linearGradient>
						<path class="st8" d="M22.7,11.5c0.7,0,1.2,0.5,1.2,1.2c0,0.7-0.5,1.2-1.2,1.2c-0.7,0-1.2-0.5-1.2-1.2
							C21.5,12,22,11.5,22.7,11.5z"/>
						<linearGradient id="SVGID_10_" gradientUnits="userSpaceOnUse" x1="25.2055" y1="12.7034" x2="27.6255" y2="12.7034">
							<stop  offset="0.2593" style="stop-color:#FFDB6E"/>
							<stop  offset="1" style="stop-color:#FFBC5E"/>
						</linearGradient>
						<path class="st9" d="M26.4,11.5c0.7,0,1.2,0.5,1.2,1.2c0,0.7-0.5,1.2-1.2,1.2c-0.7,0-1.2-0.5-1.2-1.2
							C25.2,12,25.7,11.5,26.4,11.5z"/>
						<linearGradient id="SVGID_11_" gradientUnits="userSpaceOnUse" x1="42.4463" y1="28.1292" x2="55.4521" y2="28.1292">
							<stop  offset="0.2593" style="stop-color:#FFDB6E"/>
							<stop  offset="1" style="stop-color:#FFBC5E"/>
						</linearGradient>
						<path class="st10" d="M42.4,25.1v6c0,0.4,0.2,0.9,0.6,1.1l5.2,3c0.4,0.2,0.9,0.2,1.3,0l5.2-3c0.4-0.2,0.6-0.6,0.6-1.1v-6
							c0-0.4-0.2-0.9-0.6-1.1l-5.2-3c-0.4-0.2-0.9-0.2-1.3,0l-5.2,3C42.6,24.2,42.4,24.6,42.4,25.1z M45,25.8l4-2.3l4,2.3v4.6
							l-4,2.3l-4-2.3V25.8L45,25.8z"/>
						<linearGradient id="SVGID_12_" gradientUnits="userSpaceOnUse" x1="34.8847" y1="15.5264" x2="47.8906" y2="15.5264">
							<stop  offset="0.2593" style="stop-color:#FFDB6E"/>
							<stop  offset="1" style="stop-color:#FFBC5E"/>
						</linearGradient>
						<path class="st11" d="M35.5,19.7l5.2,3c0.4,0.2,0.9,0.2,1.3,0l5.2-3c0.4-0.2,0.6-0.6,0.6-1.1v-6c0-0.4-0.2-0.9-0.6-1.1l-5.2-3
							c-0.4-0.2-0.9-0.2-1.3,0l-5.2,3c-0.4,0.2-0.6,0.6-0.6,1.1v6C34.9,19,35.1,19.5,35.5,19.7z M37.4,13.2l4-2.3l4,2.3v4.6l-4,2.3
							l-4-2.3V13.2L37.4,13.2z"/>
						<linearGradient id="SVGID_13_" gradientUnits="userSpaceOnUse" x1="27.3227" y1="28.1292" x2="40.3286" y2="28.1292">
							<stop  offset="0.2593" style="stop-color:#FFDB6E"/>
							<stop  offset="1" style="stop-color:#FFBC5E"/>
						</linearGradient>
						<path class="st12" d="M27.3,25.1v6c0,0.4,0.2,0.9,0.6,1.1l5.2,3c0.4,0.2,0.9,0.2,1.3,0l5.2-3c0.4-0.2,0.6-0.6,0.6-1.1v-6
							c0-0.4-0.2-0.9-0.6-1.1l-5.2-3c-0.4-0.2-0.9-0.2-1.3,0l-5.2,3C27.5,24.2,27.3,24.6,27.3,25.1z M29.8,25.8l4-2.3l4,2.3v4.6
							l-4,2.3l-4-2.3V25.8L29.8,25.8z"/>
						<linearGradient id="SVGID_14_" gradientUnits="userSpaceOnUse" x1="4.9404" y1="12.754" x2="20.1645" y2="12.754">
							<stop  offset="0.2593" style="stop-color:#FFDB6E"/>
							<stop  offset="1" style="stop-color:#FFBC5E"/>
						</linearGradient>
						<path class="st13" d="M6.3,14h12.6c0.7,0,1.3-0.6,1.3-1.3c0-0.7-0.6-1.2-1.3-1.2H6.3c-0.7,0-1.3,0.6-1.3,1.3S5.6,14,6.3,14z"
							/>
						<linearGradient id="SVGID_15_" gradientUnits="userSpaceOnUse" x1="4.9404" y1="16.4338" x2="27.726" y2="16.4338">
							<stop  offset="0.2593" style="stop-color:#FFDB6E"/>
							<stop  offset="1" style="stop-color:#FFBC5E"/>
						</linearGradient>
						<path class="st14" d="M6.3,17.7h20.2c0.7,0,1.3-0.6,1.3-1.3c0-0.7-0.6-1.3-1.3-1.3H6.3c-0.7,0-1.3,0.6-1.3,1.3
							C4.9,17.1,5.6,17.7,6.3,17.7z"/>
						<linearGradient id="SVGID_16_" gradientUnits="userSpaceOnUse" x1="4.9404" y1="20.2649" x2="16.333" y2="20.2649">
							<stop  offset="0.2593" style="stop-color:#FFDB6E"/>
							<stop  offset="1" style="stop-color:#FFBC5E"/>
						</linearGradient>
						<path class="st15" d="M6.3,21.6H15c0.7,0,1.3-0.6,1.3-1.3c0-0.7-0.6-1.3-1.3-1.3H6.3c-0.7,0-1.3,0.6-1.3,1.3
							C4.9,21,5.6,21.6,6.3,21.6z"/>
						<linearGradient id="SVGID_17_" gradientUnits="userSpaceOnUse" x1="4.9404" y1="24.0961" x2="21.3745" y2="24.0961">
							<stop  offset="0.2593" style="stop-color:#FFDB6E"/>
							<stop  offset="1" style="stop-color:#FFBC5E"/>
						</linearGradient>
						<path class="st16" d="M6.3,25.4h13.8c0.7,0,1.3-0.6,1.3-1.3c0-0.7-0.6-1.3-1.3-1.3H6.3c-0.7,0-1.3,0.6-1.3,1.3
							C4.9,24.8,5.6,25.4,6.3,25.4z"/>
						<linearGradient id="SVGID_18_" gradientUnits="userSpaceOnUse" x1="4.9404" y1="27.8769" x2="12.603" y2="27.8769">
							<stop  offset="0.2593" style="stop-color:#FFDB6E"/>
							<stop  offset="1" style="stop-color:#FFBC5E"/>
						</linearGradient>
						<path class="st17" d="M6.3,29.1h5c0.7,0,1.3-0.6,1.3-1.3c0-0.7-0.6-1.2-1.3-1.2h-5c-0.7,0-1.3,0.6-1.3,1.3
							C4.9,28.6,5.6,29.1,6.3,29.1z"/>
						<linearGradient id="SVGID_19_" gradientUnits="userSpaceOnUse" x1="4.9404" y1="31.6577" x2="20.1645" y2="31.6577">
							<stop  offset="0.2593" style="stop-color:#FFDB6E"/>
							<stop  offset="1" style="stop-color:#FFBC5E"/>
						</linearGradient>
						<path class="st18" d="M6.3,33h12.6c0.7,0,1.3-0.6,1.3-1.3c0-0.7-0.6-1.3-1.3-1.3H6.3c-0.7,0-1.3,0.6-1.3,1.3
							C4.9,32.4,5.6,33,6.3,33z"/>
						<linearGradient id="SVGID_20_" gradientUnits="userSpaceOnUse" x1="3.8315" y1="53.7378" x2="10.0825" y2="53.7378">
							<stop  offset="0.2593" style="stop-color:#FFDB6E"/>
							<stop  offset="1" style="stop-color:#FFBC5E"/>
						</linearGradient>
						<path class="st19" d="M7,50.6c-1.7,0-3.1,1.4-3.1,3.1s1.4,3.1,3.1,3.1c1.7,0,3.1-1.4,3.1-3.1S8.7,50.6,7,50.6z M7,54.3
							c-0.3,0-0.6-0.3-0.6-0.6c0-0.3,0.3-0.6,0.6-0.6c0.3,0,0.6,0.3,0.6,0.6C7.6,54,7.3,54.3,7,54.3z"/>
						<linearGradient id="SVGID_21_" gradientUnits="userSpaceOnUse" x1="49.1001" y1="53.1329" x2="56.7627" y2="53.1329">
							<stop  offset="0.2593" style="stop-color:#FFDB6E"/>
							<stop  offset="1" style="stop-color:#FFBC5E"/>
						</linearGradient>
						<path class="st20" d="M52.9,49.3c-2.1,0-3.8,1.7-3.8,3.8c0,2.1,1.7,3.8,3.8,3.8c2.1,0,3.8-1.7,3.8-3.8
							C56.8,51,55,49.3,52.9,49.3z M52.9,54.3c-0.7,0-1.3-0.6-1.3-1.3c0-0.7,0.6-1.2,1.3-1.2c0.7,0,1.3,0.6,1.3,1.3
							C54.2,53.8,53.6,54.3,52.9,54.3z"/>
						<linearGradient id="SVGID_22_" gradientUnits="userSpaceOnUse" x1="3.7304" y1="1.3105" x2="55.5532" y2="1.3105">
							<stop  offset="0.2593" style="stop-color:#FFDB6E"/>
							<stop  offset="1" style="stop-color:#FFBC5E"/>
						</linearGradient>
						<path class="st21" d="M5,2.6h49.2c0.7,0,1.3-0.6,1.3-1.3c0-0.7-0.6-1.3-1.3-1.3H5C4.3,0,3.7,0.6,3.7,1.3
							C3.7,2.1,4.3,2.6,5,2.6z"/>
						<linearGradient id="SVGID_23_" gradientUnits="userSpaceOnUse" x1="26.4155" y1="53.1329" x2="34.0781" y2="53.1329">
							<stop  offset="0.2593" style="stop-color:#FFDB6E"/>
							<stop  offset="1" style="stop-color:#FFBC5E"/>
						</linearGradient>
						<path class="st22" d="M26.4,53.1c0,0.7,0.6,1.3,1.3,1.3h5c0.7,0,1.3-0.6,1.3-1.3c0-0.7-0.6-1.3-1.3-1.3h-5
							C27,51.8,26.4,52.4,26.4,53.1z"/>
					</g>
				</g>
				<g id="Layer_1_00000178191943018540211350000012766311323693201795_" class="st23">
				</g>
			</g>
		</g>
	</g>
</g>
</svg>
