<?xml version="1.0" encoding="utf-8"?>
<!-- Generator: Adobe Illustrator 25.3.1, SVG Export Plug-In . SVG Version: 6.00 Build 0)  -->
<svg version="1.1" id="Layer_1" xmlns="http://www.w3.org/2000/svg" xmlns:xlink="http://www.w3.org/1999/xlink" x="0px" y="0px"
	 viewBox="0 0 133.1 99.9" style="enable-background:new 0 0 133.1 99.9;" xml:space="preserve">
<style type="text/css">
	.st0{fill:url(#SVGID_1_);}
	.st1{fill:url(#SVGID_2_);}
	.st2{fill:url(#SVGID_3_);}
</style>
<g id="Objects">
	<g>
		<g>
			<linearGradient id="SVGID_1_" gradientUnits="userSpaceOnUse" x1="28.5809" y1="59.5245" x2="104.2169" y2="59.5245">
				<stop  offset="0.2593" style="stop-color:#FFDB6E"/>
				<stop  offset="1" style="stop-color:#FFBC5E"/>
			</linearGradient>
			<path class="st0" d="M94.1,19.1h-0.3H38.9c-5.8,0-10.3,4.6-10.3,10.4v45.8c0,5.8,4.5,10.7,10.3,10.7h8.8v3.7c0,0.2,0,0.4,0,0.6
				c0.3,5.5,4.3,9.6,9.9,9.6H75c5.6,0,10.6-4.1,11-9.6c0-0.2,0-0.4,0-0.6V86h8.1c5.8,0,10.1-4.9,10.1-10.7V29.5
				C104.2,23.7,99.9,19.1,94.1,19.1z M38.1,40.4c0-5.1,4.1-9.1,9.1-9.1h38.2c5.1,0,9.1,4.1,9.1,9.1v7.8c0,5.1-4.1,9.1-9.1,9.1H47.3
				c-5.1,0-9.1-4.1-9.1-9.1V40.4z M47.7,80.8c-0.9,0.4-1.8,0.6-2.8,0.6c-3.8,0-6.9-3.1-6.9-6.9c0-3.8,3.1-6.9,6.9-6.9
				c3.8,0,6.9,3.1,6.9,6.9c0,0.1,0,0.2,0,0.3C51.7,77.4,50.1,79.7,47.7,80.8z M66.5,81.4c-3.7,0-6.8-3-6.9-6.7c0-0.1,0-0.2,0-0.3
				c0-3.8,3.1-6.9,6.9-6.9c3.8,0,6.9,3.1,6.9,6.9c0,0.1,0,0.2,0,0.3C73.3,78.4,70.2,81.4,66.5,81.4z M88.1,81.4
				c-0.7,0-1.5-0.1-2.1-0.3c-2.7-0.9-4.7-3.4-4.8-6.3c0-0.1,0-0.2,0-0.3c0-3.8,3.1-6.9,6.9-6.9c3.8,0,6.9,3.1,6.9,6.9
				C95,78.3,91.9,81.4,88.1,81.4z"/>
			<linearGradient id="SVGID_2_" gradientUnits="userSpaceOnUse" x1="0" y1="35.194" x2="133.0609" y2="35.194">
				<stop  offset="0.2593" style="stop-color:#FFDB6E"/>
				<stop  offset="1" style="stop-color:#FFBC5E"/>
			</linearGradient>
			<path class="st1" d="M125.5,15.8c-4.1,0-7.5,3.4-7.5,7.5c0,3.1,1.8,5.7,4.4,6.8v14.7c0,2.1-2.1,3.8-4.2,3.8h-1V38.3
				c0-2.3-1.4-4.4-3.7-4.4h-0.7V13c0-7.3-5.5-13-12.5-13H32.9c-7.2,0-13,5.6-13,13v20.9h-0.2c-2.3,0-4.2,1.8-4.2,4.1v10.6h-0.8
				c-2.1,0-3.6-1.7-3.6-3.8v-15c2.3-1.3,3.8-3.7,3.8-6.5c0-4.1-3.4-7.5-7.5-7.5c-4.1,0-7.5,3.4-7.5,7.5c0,3,1.7,5.5,4.2,6.8v14.8
				c0,5.9,4.6,10.8,10.5,10.8h0.8V66c0,2.3,1.9,4.4,4.2,4.4h4.5V41.7v-7.8v-4.4V13c0-5,3.8-9.5,8.7-9.5h67.5c4.8,0,9,4.4,9,9.5v20.9
				h-0.9v36.5h5c2.3,0,3.7-1.8,3.7-4.1V55.6h1c5.9,0,10.3-4.9,10.3-10.8V30.2c2.6-1.2,4.5-3.8,4.5-6.9
				C133.1,19.2,129.7,15.8,125.5,15.8z"/>
			<linearGradient id="SVGID_3_" gradientUnits="userSpaceOnUse" x1="42.4919" y1="44.317" x2="91.178" y2="44.317">
				<stop  offset="0.2593" style="stop-color:#FFDB6E"/>
				<stop  offset="1" style="stop-color:#FFBC5E"/>
			</linearGradient>
			<path class="st2" d="M47.6,53h38.6c2.8,0,5.1-2.3,5.1-5.1v-7.2c0-2.8-2.3-5.1-5.1-5.1H47.6c-2.8,0-5.1,2.3-5.1,5.1v7.2
				C42.5,50.7,44.8,53,47.6,53z M79.4,40.4c2.4,0,4.4,2,4.4,4.4s-2,4.4-4.4,4.4c-2.4,0-4.4-2-4.4-4.4C75.1,42.4,77,40.4,79.4,40.4z
				 M53.5,40.4c2.4,0,4.4,2,4.4,4.4s-2,4.4-4.4,4.4c-2.4,0-4.4-2-4.4-4.4C49.1,42.4,51.1,40.4,53.5,40.4z"/>
		</g>
	</g>
</g>
</svg>
