<svg id="Layer_1" data-name="Layer 1" xmlns="http://www.w3.org/2000/svg" viewBox="0 0 765.76 844.32"><defs><style>.cls-1{fill:#232323;}.cls-2{stroke:#fff;stroke-miterlimit:10;stroke-width:4px;}.cls-3,.cls-5{fill:#fff;}.cls-4{fill:#c2ba72;}.cls-5{stroke:#020202;stroke-linecap:round;}.cls-5,.cls-6{stroke-linejoin:bevel;stroke-width:6px;}.cls-6{fill:#020202;stroke:#000;}</style></defs><path class="cls-1" d="M503.34,521.6c-.18.24-.34.48-.51.72v-.68Z" transform="translate(-118.54 -54.15)"/><path d="M785.9,485.66l21.24-2.47V469.3L786,465.41a141.39,141.39,0,0,0-2.2-17l19.43-9.22-3.6-13.41-21.09,3.09a141.51,141.51,0,0,0-6-14.51l17.06-12.69-7-12-20.15,7.18A139.86,139.86,0,0,0,752,383.23l12.15-17.6-9.82-9.83-16.6,13.13a140.77,140.77,0,0,0-12.45-9.66l3.88-9A399.13,399.13,0,0,0,658.41,382c0,.26,0,.53,0,.79a13,13,0,0,1-19.78,11q-13.32,8.42-26.31,17.87a71.91,71.91,0,1,1-19.24,14.73,489.41,489.41,0,0,0-39.91,35.82,13,13,0,1,1-13.1,13.66,430,430,0,0,0-36.76,45.66l9.15-.74a139.57,139.57,0,0,0,6.91,16.63l-15.27,13,6.94,12,18.34-7.91a140.31,140.31,0,0,0,10,12.89L527,583.22l9.82,9.82,16.67-11.51a141.3,141.3,0,0,0,14.2,10.85l-6.81,19.11,12,7,12.07-16.22a140,140,0,0,0,15,6.1L597,628.43,610.39,632l8.81-18.58a139.73,139.73,0,0,0,16.74,2.14l2.38,20.4h13.89L656,615.53a140,140,0,0,0,17.38-2.33L682.27,632l13.42-3.59-3-20.57a141.44,141.44,0,0,0,14.67-6.16l12.45,16.74,12-6.94-7.09-19.9A140.83,140.83,0,0,0,738.4,581L755.88,593l9.82-9.82-13.13-16.61a140,140,0,0,0,9.57-12.49l19.45,8.4,6.94-12-16.28-13.86a138.79,138.79,0,0,0,6.51-15.88l21.37,1.72,3.6-13.41-19.83-7.88A138.84,138.84,0,0,0,785.9,485.66Zm-214,47A13,13,0,1,1,576.66,515,13,13,0,0,1,571.91,532.69Zm38.58,29.08a13,13,0,1,1-4.75-17.71A13,13,0,0,1,610.49,561.77Zm35,18.87a13,13,0,1,1,13-13A13,13,0,0,1,645.47,580.64Zm52.7-14.12a13,13,0,1,1,4.74-17.71A13,13,0,0,1,698.17,566.52Zm4.74-164.83A13,13,0,1,1,698.17,384,13,13,0,0,1,702.91,401.69Zm11.37,33.84A13,13,0,1,1,732,440.27,13,13,0,0,1,714.28,435.53ZM736.74,528A13,13,0,1,1,732,510.23,13,13,0,0,1,736.74,528Zm1.16-39.73a13,13,0,1,1,13-13A13,13,0,0,1,737.9,488.22Z" transform="translate(-118.54 -54.15)"/><path d="M593.11,426.46q9.48-7.63,19.24-14.73A71.87,71.87,0,0,0,593.11,426.46Z" transform="translate(-118.54 -54.15)"/><path d="M493.43,520.86l9.14.74a428.79,428.79,0,0,0-36.76-45.66,13,13,0,1,1-13.09-13.66,492,492,0,0,0-39.88-35.79,71.61,71.61,0,1,1-19.31-14.78q-12.94-9.43-26.28-17.85a13,13,0,0,1-19.77-11c0-.26,0-.53,0-.79a399,399,0,0,0-70.78-31.76l3.88,9a139.32,139.32,0,0,0-12.45,9.66l-16.6-13.13-9.82,9.83,12.14,17.6a139.76,139.76,0,0,0-10.45,13.63l-20.16-7.18-6.95,12,17.06,12.69a141.45,141.45,0,0,0-5.94,14.51l-21.09-3.09-3.6,13.41,19.43,9.22a141.39,141.39,0,0,0-2.2,17l-21.18,3.89v13.89L220,485.66a141.22,141.22,0,0,0,2,15.52l-19.83,7.88,3.61,13.41,21.37-1.72a137,137,0,0,0,6.51,15.88l-16.29,13.86,6.94,12,19.46-8.4a138.09,138.09,0,0,0,9.57,12.49l-13.13,16.61L250,593,267.51,581a143.3,143.3,0,0,0,13.67,10.63l-7.08,19.9,12,6.94,12.45-16.74a142.36,142.36,0,0,0,14.67,6.16l-3,20.57L323.65,632l8.92-18.82A140,140,0,0,0,350,615.53L353.7,636h13.9l2.38-20.4a139.73,139.73,0,0,0,16.74-2.14L395.53,632l13.41-3.59L406,608.32a141,141,0,0,0,15-6.1l12.06,16.22,12-7-6.81-19.11a140.3,140.3,0,0,0,14.21-10.85L469.13,593l9.82-9.82-12.44-15.73a136.9,136.9,0,0,0,10-12.89l18.35,7.91,6.94-12-15.28-13A138,138,0,0,0,493.43,520.86ZM307.74,384A13,13,0,1,1,303,401.69,13,13,0,0,1,307.74,384Zm-38.56,38.58a13,13,0,1,1,4.74,17.71A13,13,0,0,1,269.18,422.56Zm-14.13,52.69a13,13,0,1,1,13,13A13,13,0,0,1,255.05,475.25Zm31.83,57.44A13,13,0,1,1,291.63,515,12.95,12.95,0,0,1,286.88,532.69Zm38.59,29.09a13,13,0,1,1-4.75-17.72A13,13,0,0,1,325.47,561.78Zm35,18.86a13,13,0,1,1,13-13A13,13,0,0,1,360.44,580.64Zm52.71-14.12a13,13,0,1,1,4.73-17.71A13,13,0,0,1,413.15,566.52ZM451.72,528A13,13,0,1,1,447,510.23,13,13,0,0,1,451.72,528Z" transform="translate(-118.54 -54.15)"/><path d="M412.84,426.49q-9.51-7.67-19.31-14.78A71.61,71.61,0,0,1,412.84,426.49Z" transform="translate(-118.54 -54.15)"/><path d="M672.66,300.65l-14.8,19.81c-20.44,3.76-43.36,11.55-65.57,23.43l7.77-10.46s3.86-5.45,8.11-11.52a176.72,176.72,0,0,0-42.79-22.34,184.26,184.26,0,0,0-49.59-10.41c-1.23-.09-2.46-.16-3.7-.22V407.45a28.94,28.94,0,0,1,5.93,1.21,167.78,167.78,0,0,0-15.45,27.77,169.54,169.54,0,0,0-15.28-27.52l.36-.11.75-.22,1-.28.82-.19h0c.27-.06.53-.11.8-.15s.65-.12,1-.17l.65-.08.21,0c.25,0,.5-.06.75-.07V288.9c-1.53.07-3,.16-4.55.27A180.73,180.73,0,0,0,396.75,322l-.47.34,8.25,11.11.2.26,7.22,9.73a229.55,229.55,0,0,0-64.67-23l-14.8-19.81,14.17-13.1,22.87,16.71a202.61,202.61,0,0,1,18.57-13.13l-11.56-24.75,17.35-9.25L413,277.88a212.5,212.5,0,0,1,23.69-8.9l-2.38-27.33,19.36-4.79,10.94,25.45a218.24,218.24,0,0,1,22.95-2.66L491,232.32h20.05l5.44,27.4a220,220,0,0,1,23.9,2.91l11.07-25.77,19.37,4.79-2.45,28a210.35,210.35,0,0,1,23.12,9l19.75-21.45,17.36,9.25-12.05,25.8a204.73,204.73,0,0,1,18,12.88l24-17.5Z" transform="translate(-118.54 -54.15)"/><path class="cls-2" d="M789.83,337.32c-19.32,1.63-39.75,6.06-60.63,12.95A399.13,399.13,0,0,0,658.41,382q-9.93,5.63-19.75,11.83a496,496,0,0,0-61.26,45.77c-48.14,49.92-57,96.75-57,96.75H485.49s-8.93-47-57.3-97a494.34,494.34,0,0,0-60.94-45.5q-9.79-6.21-19.75-11.83a399,399,0,0,0-70.78-31.76c-20.88-6.89-41.31-11.32-60.63-12.95,5-9,7-21,44-51,29.08-7.93,82.46,4.82,133.14,32.05,4.45,2.4,8.89,4.91,13.28,7.52,7.54,4.48,15,9.28,22.17,14.38,4.67,3.28,9.24,6.7,13.69,10.22q8,6.31,15.39,13.11,6.54,6,12.59,12.32a221.92,221.92,0,0,1,15,17.51c3.5,4.56,6.79,9.23,9.8,14q4.23,6.69,7.78,13.64,3.53-6.94,7.78-13.64c3-4.77,6.29-9.44,9.79-14a222.06,222.06,0,0,1,15-17.51q6-6.35,12.58-12.32,7.43-6.8,15.4-13.11c4.45-3.52,9-6.94,13.68-10.22,7.21-5.1,14.63-9.9,22.17-14.38q6.58-3.92,13.29-7.52c50.67-27.23,104.06-40,133.14-32.05C782.83,316.32,784.83,328.32,789.83,337.32Z" transform="translate(-118.54 -54.15)"/><path class="cls-3" d="M558.56,373.16a600.72,600.72,0,0,0-40.68,45.49q-5.26,6.56-10.39,13.23c-.19.25.25.59.45.34q18.55-24,39-46.33,5.81-6.36,11.74-12.59C558.79,373.2,558.65,373.06,558.56,373.16Z" transform="translate(-118.54 -54.15)"/><path class="cls-3" d="M618.53,361.56a279.18,279.18,0,0,0-47.91,30.62,286.89,286.89,0,0,0-41.06,39.53,193.61,193.61,0,0,0-19,25.63.15.15,0,0,0,.25.15c5.75-7.63,11.32-15.38,17.42-22.75s12.41-14.25,19.1-20.92a290.4,290.4,0,0,1,43.88-35.94,304.67,304.67,0,0,1,27.4-16.16C618.74,361.66,618.64,361.5,618.53,361.56Z" transform="translate(-118.54 -54.15)"/><path class="cls-3" d="M554.87,437.34a151.47,151.47,0,0,0-32,31.16,109.23,109.23,0,0,0-7.35,10.76,0,0,0,1,0,0,0c4.38-6.14,8.92-12.19,13.87-17.88a175,175,0,0,1,15.87-15.89c3.14-2.79,6.4-5.46,9.71-8C555.07,437.42,555,437.27,554.87,437.34Z" transform="translate(-118.54 -54.15)"/><path class="cls-3" d="M711.21,333.63c-17.08,4.28-33.53,11.91-48.4,21.27a99.56,99.56,0,0,0-12.07,8.53c-.11.1,0,.29.16.21,3.72-2.34,7.29-4.9,11-7.25s7.39-4.49,11.19-6.55a199.42,199.42,0,0,1,24.07-11c4.66-1.78,9.39-3.37,14.13-4.91A.15.15,0,0,0,711.21,333.63Z" transform="translate(-118.54 -54.15)"/><path class="cls-3" d="M672.81,308.24A225.12,225.12,0,0,0,623,334.13q-3.3,2.3-6.52,4.68l-2.76,2.12a9.66,9.66,0,0,0-2.7,2.63.08.08,0,0,0,.08.12c2-.59,3.72-2.33,5.38-3.55,1.86-1.36,3.73-2.71,5.61-4,3.85-2.68,7.77-5.23,11.75-7.69a269.47,269.47,0,0,1,24.21-13.29c4.86-2.35,9.8-4.58,14.8-6.61C673.05,308.44,673,308.18,672.81,308.24Z" transform="translate(-118.54 -54.15)"/><path class="cls-3" d="M765.77,305.73c-3,.07-6,.24-8.93.41-4.86.3-9.7.83-14.52,1.49a234.74,234.74,0,0,0-29.25,6,151.61,151.61,0,0,0-16.26,5.23c-.28.11-.18.56.13.47,9.49-2.79,18.92-5.63,28.62-7.66A267.11,267.11,0,0,1,755,307.23c3.76-.37,7.52-.59,11.27-.82A1.56,1.56,0,0,1,765.77,305.73Z" transform="translate(-118.54 -54.15)"/><path class="cls-3" d="M447.36,373.16A602.76,602.76,0,0,1,488,418.65q5.28,6.56,10.39,13.23c.19.25-.25.59-.44.34q-18.56-24-39-46.33-5.81-6.36-11.74-12.59A.1.1,0,1,1,447.36,373.16Z" transform="translate(-118.54 -54.15)"/><path class="cls-3" d="M387.38,361.56a278.41,278.41,0,0,1,47.91,30.62,285.85,285.85,0,0,1,41.06,39.53c6.87,8.09,13.54,16.51,19,25.63.1.17-.15.3-.26.15-5.75-7.63-11.32-15.38-17.41-22.75s-12.42-14.25-19.11-20.92a290.32,290.32,0,0,0-43.87-35.94,306.24,306.24,0,0,0-27.41-16.16A.09.09,0,0,1,387.38,361.56Z" transform="translate(-118.54 -54.15)"/><path class="cls-3" d="M451,437.34a151.52,151.52,0,0,1,32,31.16,110.9,110.9,0,0,1,7.34,10.76,0,0,0,1,1-.05,0c-4.38-6.14-8.91-12.19-13.87-17.88a173.72,173.72,0,0,0-15.87-15.89c-3.14-2.79-6.39-5.46-9.71-8C450.85,437.42,451,437.27,451,437.34Z" transform="translate(-118.54 -54.15)"/><path class="cls-3" d="M294.7,333.63c17.08,4.28,33.53,11.91,48.4,21.27a99.56,99.56,0,0,1,12.07,8.53.13.13,0,0,1-.16.21c-3.72-2.34-7.29-4.9-11-7.25s-7.39-4.49-11.19-6.55a198.72,198.72,0,0,0-24.07-11c-4.66-1.78-9.38-3.37-14.13-4.91A.15.15,0,0,1,294.7,333.63Z" transform="translate(-118.54 -54.15)"/><path class="cls-3" d="M333.1,308.24a225.12,225.12,0,0,1,49.77,25.89q3.3,2.3,6.52,4.68c.93.7,1.84,1.41,2.76,2.12a9.7,9.7,0,0,1,2.71,2.63c0,.06,0,.14-.09.12-2-.59-3.72-2.33-5.38-3.55-1.86-1.36-3.72-2.71-5.61-4-3.84-2.68-7.76-5.23-11.75-7.69a269.47,269.47,0,0,0-24.21-13.29c-4.86-2.35-9.79-4.58-14.79-6.61C332.86,308.44,332.93,308.18,333.1,308.24Z" transform="translate(-118.54 -54.15)"/><path class="cls-3" d="M240.14,305.73c3,.07,6,.24,8.93.41,4.86.3,9.7.83,14.52,1.49a234.74,234.74,0,0,1,29.25,6,150.89,150.89,0,0,1,16.26,5.23c.28.11.18.56-.13.47-9.49-2.79-18.92-5.63-28.61-7.66a267.65,267.65,0,0,0-29.4-4.42c-3.75-.37-7.51-.59-11.27-.82A1.56,1.56,0,0,0,240.14,305.73Z" transform="translate(-118.54 -54.15)"/><polygon class="cls-4" points="409.21 163.08 385.56 148.22 362.39 163.08 370.2 136.42 347.4 118.2 376.47 118.14 385.16 91.21 394.54 117.93 423.23 117.93 401.23 136.63 409.21 163.08"/><polygon class="cls-5" points="441.64 541.6 384.03 637.96 384.03 510.45 403.55 510.45 441.64 541.6"/><polygon class="cls-6" points="384.03 510.45 384.03 637.96 327.53 541.6 364.98 510.45 384.03 510.45"/><polygon class="cls-4" points="550.88 220.94 534.64 210.51 518.17 220.94 523.94 202.42 507.86 189.67 528.37 189.56 534.36 170.65 540.68 189.67 560.97 189.78 545.06 202.43 550.88 220.94"/><polygon class="cls-4" points="104.58 550.1 96.56 545.06 88.42 550.43 91.3 541.38 83.24 534.76 93.5 534.65 96.44 525.23 99.57 534.76 109.76 534.69 101.89 541.31 104.58 550.1"/><polygon class="cls-4" points="680.6 549.98 672.62 545.12 664.6 550.35 667.36 541.3 659.97 534.97 669.64 534.94 672.78 525.31 675.67 534.85 685.62 534.89 677.7 541.26 680.6 549.98"/><polygon class="cls-4" points="67.89 434.39 58.57 428.32 49.2 434.39 52.45 423.86 43.43 416.45 55 416.44 58.76 405.4 62.25 416.43 73.85 416.48 64.62 424.01 67.89 434.39"/><polygon class="cls-4" points="719.97 435.51 709.91 428.98 699.82 435.51 703.32 424.17 693.6 416.18 706.07 416.17 710.13 404.27 713.88 416.16 726.38 416.21 716.44 424.33 719.97 435.51"/><polygon class="cls-4" points="92.66 313.67 79.85 305.11 66.56 313.67 71.33 298.89 58.64 288.7 74.91 288.64 79.97 273.56 84.98 288.58 101.42 288.76 88.43 298.88 92.66 313.67"/><polygon class="cls-4" points="698.08 313.4 685.43 304.95 672.33 313.4 677.03 298.82 664.51 288.77 680.56 288.71 685.56 273.84 690.5 288.65 706.72 288.83 693.9 298.81 698.08 313.4"/><polygon class="cls-4" points="249.46 221.02 233.75 210.66 217.69 221.02 223.33 203.17 207.93 190.61 227.67 190.43 234.06 172.44 240.09 190.52 259.56 190.66 244.12 203.37 249.46 221.02"/><path d="M788.27,76.51C628.38,44.33,368.92,48.1,211.17,80.06,23.64,434.3,120.87,687.53,502.68,898.47,881.75,687.53,981.4,422.52,788.27,76.51Zm-285.59,810C158.2,678.79,58.32,462.28,245.85,135c157.75-29.53,349.13-32.75,509-3C948,451.66,854.44,673.37,502.68,886.55Z" transform="translate(-118.54 -54.15)"/></svg>